# xmcd
#
# Track frame offsets: 
#        150
#        10396
#        28095
#        43559
#        66750
#        80155
#        98260
#        115927
#        129700
#        144514
#
# Disc length: 2135 seconds
#
# Revision: 0
# Processed by: cddbd v1.5.2PL0 Copyright (c) Steve Scherf et al.
# Submitted via: ExactAudioCopyFreeDBPlugin 1.0
#
DISCID=8208550a
DTITLE=Bad Temper Joe - Double Trouble
DYEAR=2016
DGENRE=R&B
TTITLE0=Double Trouble
TTITLE1=Girl from the East
TTITLE2=Spoonful
TTITLE3=It Tears Were Diamonds
TTITLE4=I'll Be Happy When You Cry
TTITLE5=Next to You
TTITLE6=24 Hours of the Day
TTITLE7=Watching Her Sleeping
TTITLE8=Ever Meet Again
TTITLE9=Gave up Loving You
EXTD=
EXTT0=
EXTT1=
EXTT2=
EXTT3=
EXTT4=
EXTT5=
EXTT6=
EXTT7=
EXTT8=
EXTT9=
PLAYORDER=
